General:

Complete name                    : Miley Cyrus - Can't Be Tamed [HD] ~ cHowZ.avi
Format                           : AVI
Format/Info                      : Audio Video Interleave
File size                        : 168 MiB
Duration                         : 3mn 47s
Overall bit rate                 : 6 216 Kbps
Writing application              : Lavf52.39.1

Video:

Format                           : xvid
Codec ID                         : xvid
Duration                         : 3mn 47s
Bit rate                         : 5 980 Kbps
Width                            : 1 280 pixels
Height                           : 720 pixels
Display aspect ratio             : 16:9
Frame rate                       : 24.000 fps
Bits/(Pixel*Frame)               : 0.270
Stream size                      : 162 MiB (96%)

Audio:

ID                               : 1
Format                           : MPEG Audio
Format version                   : Version 1
Format profile                   : Layer 3
Format_Settings_Mode             : Joint stereo
Format_Settings_ModeExtension    : MS Stereo
Codec ID                         : 55
Codec ID/Hint                    : MP3
Duration                         : 3mn 47s
Bit rate mode                    : Constant
Bit rate                         : 224 Kbps
Channel(s)                       : 2 channels
Sampling rate                    : 48.0 KHz
Stream size                      : 6.06 MiB (4%)
Alignment                        : Aligned on interleaves
Interleave, duration             : 24 ms (0.58 video frame)
Writing library                  : LAME3.96.1

Screenshots: 
http://img443.imageshack.us/img443/384/tbetamedscreens.jpg


~~~~~~~~PLEASE CONTINUE SEEDING AFTER DOWNLOADING IS COMPLETE~~~~~~~~